<?xml version="1.0" encoding="utf-8"?>
<!-- Generator: Adobe Illustrator 19.1.0, SVG Export Plug-In . SVG Version: 6.00 Build 0)  -->
<svg version="1.1" id="Layer_1" xmlns="http://www.w3.org/2000/svg" xmlns:xlink="http://www.w3.org/1999/xlink" x="0px" y="0px"
	 viewBox="0 0 128 128" style="enable-background:new 0 0 128 128;" xml:space="preserve">
<g>
	<path d="M111.9,113.3c-3.8-14.6-22.1-29.5-44.1-30.9V63.5c8.4-0.4,16-4,21.5-9.8c-4.2,2.8-9,4.4-14.4,4.4
		c-14.4,0-26.3-11.8-26.3-26.3S60.4,5.6,74.8,5.6c5.4,0,10.2,1.6,14.4,4.4c-5.8-6-14-10-23.1-10C48.6,0,34.3,14.2,34.3,31.9
		c0,15.4,10.8,28.3,25.5,31.3v19.4C38.1,84.4,20.9,99,17.1,113.5H-0.2v14.6h128.3v-14.8H111.9z"/>
	<polygon points="79.4,39.3 65.8,49.3 71,33.3 57.4,23.3 74.2,23.3 79.4,7.2 84.6,23.3 101.5,23.3 87.9,33.3 93.1,49.3 	"/>
</g>
</svg>
