<?xml version="1.0" encoding="utf-8"?>
<!-- Generator: Adobe Illustrator 19.1.0, SVG Export Plug-In . SVG Version: 6.00 Build 0)  -->
<svg version="1.1" id="Layer_1" xmlns="http://www.w3.org/2000/svg" xmlns:xlink="http://www.w3.org/1999/xlink" x="0px" y="0px"
	 viewBox="0 0 128 128" style="enable-background:new 0 0 128 128;" xml:space="preserve">
<style type="text/css">
	.st0{fill:#246CE8;}
</style>
<path class="st0" d="M125.4,25.5H118l-6.7-6.3v0.1c-0.1-0.1-0.3-0.4-0.6-0.6c-0.3-0.1-8.4-4.2-25.8-4.2c-11.3,0-17.6,4.3-20.9,7.7
	c-3.3-3.4-9.6-7.7-20.9-7.7c-17.3,0-25.5,4-25.8,4.2c-0.3,0.1-0.4,0.3-0.6,0.6v-0.1l-6.6,6.3H2.7c-1.4,0-2.7,1.1-2.7,2.7v80.3
	c0,0.7,0.3,1.4,0.9,2s1.3,0.7,2,0.7c0,0,38.8-2.9,44.4-3.4c4.9-0.4,10.5,1.6,12.5,3.7c1.1,1.1,2.3,1.7,3.3,1.7c0.3,0,0.7-0.1,1-0.3
	c0.3,0.1,0.7,0.3,1,0.3c1.1,0,2.1-0.6,3.3-1.7c2.1-2.1,7.6-4.2,12.5-3.7c5.6,0.4,44.4,3.4,44.4,3.4c0.7,0,1.4-0.1,2-0.7
	s0.9-1.3,0.9-2V28.2C128.1,26.7,127,25.5,125.4,25.5z M112.1,27.5l2,1.9v59.6l-2-4V27.5z M112.5,97.7c-6.7,0.1-16.8,0.3-19.6-0.1
	c-1.3-0.1-2.4-0.9-3.9-1.6c-2.4-1.4-5.4-3.1-11-3.6c-4.6-0.4-8.3,1.3-11,3.1v-0.3c4.7-9.7,9.9-9.9,19.6-9.7h1.6
	c8.6,0,16.5,1.9,19.3,2.6L112.5,97.7z M13.7,29.4l2-1.9v57.6l-2,4V29.4z M60.8,105.8c-4-2.4-9.4-3.7-14.2-3.3
	c-4.7,0.4-32.4,2.4-41.4,3.1V30.9h3.1v69.3c0,1.4,1.1,2.7,2.6,2.7c2,0,20.2,0.7,24.8,0c2.3-0.3,4-1.3,5.7-2.3
	c2.1-1.3,4.4-2.6,8.7-2.9c5.4-0.4,9.2,3.3,10.6,4.7C60.8,102.5,60.8,105.8,60.8,105.8z M60.8,95.5c-2.7-1.9-6.4-3.4-11-3.1
	c-5.6,0.4-8.6,2.1-11,3.6c-1.4,0.9-2.4,1.4-3.9,1.6C32.1,98,22,97.8,15.3,97.7l5-9.7c2.7-0.7,10.7-2.6,19.3-2.6h1.6
	c9.7,0,14.9,0,19.6,9.7C60.8,95.1,60.8,95.5,60.8,95.5z M41.2,80.1h-1.6c-7.4,0-14.5,1.3-18.5,2.1V23.1c2.9-1,10-3,21.9-3
	C54,20.1,59,24.6,61,27.2c0,0.1-0.1,0.4-0.1,0.6L61.3,75l-0.1,10.9C55.7,79.9,49.1,79.9,41.2,80.1z M66.7,74.9l0.4-47.2
	c0-0.1-0.1-0.4-0.1-0.6c2-2.6,6.9-7.2,17.9-7.2c11.9,0,18.9,2,21.9,3v59.1c-4-0.9-11-2.1-18.5-2.1h-1.6c-7.9,0-14.5,0-19.9,5.9
	L66.7,74.9z M122.7,105.7c-9.2-0.7-36.8-2.7-41.4-3.1c-4.7-0.4-10.2,0.9-14.2,3.3v-3.3c1.3-1.6,5.2-5.2,10.6-4.7
	c4.3,0.3,6.6,1.6,8.7,2.9c1.7,1,3.4,2,5.7,2.3c4.6,0.7,22.8,0.1,24.8,0c1.4,0,2.6-1.3,2.6-2.7V30.9h3.1V105.7z"/>
</svg>
