<?xml version="1.0" encoding="utf-8"?>
<!-- Generator: Adobe Illustrator 19.1.0, SVG Export Plug-In . SVG Version: 6.00 Build 0)  -->
<svg version="1.1" id="Layer_1" xmlns="http://www.w3.org/2000/svg" xmlns:xlink="http://www.w3.org/1999/xlink" x="0px" y="0px"
	 viewBox="0 0 128 128" style="enable-background:new 0 0 128 128;" xml:space="preserve">
<path d="M64,4.3c32.9,0,59.7,26.8,59.7,59.7S97,123.8,64,123.8S4.3,97,4.3,64S31.1,4.3,64,4.3 M64,0C28.7,0,0,28.7,0,64
	s28.7,64,64,64s64-28.7,64-64S99.4,0,64,0L64,0z"/>
<polygon points="66.2,52.5 66.2,42.5 74.7,42.5 74.7,38.2 66.2,38.2 66.2,32.9 61.9,32.9 61.9,38.2 53.4,38.2 53.4,42.5 61.9,42.5 
	61.9,52.5 42.7,52.5 42.7,95.1 85.4,95.1 85.4,52.5 "/>
</svg>
