<?xml version="1.0" encoding="utf-8"?>
<!-- Generator: Adobe Illustrator 19.1.0, SVG Export Plug-In . SVG Version: 6.00 Build 0)  -->
<svg version="1.1" id="Layer_1" xmlns="http://www.w3.org/2000/svg" xmlns:xlink="http://www.w3.org/1999/xlink" x="0px" y="0px"
	 viewBox="0 0 128 128" style="enable-background:new 0 0 128 128;" xml:space="preserve">
<g>
	<g>
		<path d="M87.9,88.6c-1.9-7.3-11-14.7-22-15.4v-9.4c4.2-0.2,8-2,10.7-4.9c-2.1,1.4-4.5,2.2-7.2,2.2c-7.2,0-13.1-5.9-13.1-13.1
			s5.9-13.1,13.1-13.1c2.7,0,5.1,0.8,7.2,2.2c-2.9-3-7-5-11.5-5c-8.8,0-15.9,7.1-15.9,15.9c0,7.7,5.4,14.1,12.7,15.6v9.7
			c-10.8,0.9-19.4,8.2-21.3,15.4H32V96h64v-7.4H87.9z"/>
		<polygon points="71.7,51.7 64.9,56.7 67.5,48.7 60.7,43.7 69.1,43.7 71.7,35.7 74.3,43.7 82.7,43.7 75.9,48.7 78.5,56.7 		"/>
	</g>
	<path d="M64,4.3c32.9,0,59.7,26.8,59.7,59.7S96.9,123.7,64,123.7S4.3,96.9,4.3,64S31.1,4.3,64,4.3 M64,0C28.7,0,0,28.7,0,64
		s28.7,64,64,64s64-28.7,64-64S99.3,0,64,0L64,0z"/>
</g>
</svg>
