<?xml version="1.0" encoding="utf-8"?>
<!-- Generator: Adobe Illustrator 19.1.0, SVG Export Plug-In . SVG Version: 6.00 Build 0)  -->
<svg version="1.1" id="Layer_1" xmlns="http://www.w3.org/2000/svg" xmlns:xlink="http://www.w3.org/1999/xlink" x="0px" y="0px"
	 viewBox="0 0 128 128" style="enable-background:new 0 0 128 128;" xml:space="preserve">
<g>
	<path d="M66.1,51.6v-7c7.1-0.7,13.1-4.9,16.5-10.9h-5c-3.1,4.1-8,6.8-13.6,6.8s-10.4-2.7-13.6-6.8h-5c3.3,6,9.3,10.2,16.5,10.9v7
		H42.7v42.7h42.7V51.6H66.1z"/>
	<path d="M64,4.3c32.9,0,59.7,26.8,59.7,59.7S96.9,123.7,64,123.7S4.3,96.9,4.3,64S31.1,4.3,64,4.3 M64,0C28.7,0,0,28.7,0,64
		s28.7,64,64,64s64-28.7,64-64S99.3,0,64,0L64,0z"/>
</g>
</svg>
