<?xml version="1.0" encoding="utf-8"?>
<!-- Generator: Adobe Illustrator 19.1.0, SVG Export Plug-In . SVG Version: 6.00 Build 0)  -->
<svg version="1.1" id="Layer_1" xmlns="http://www.w3.org/2000/svg" xmlns:xlink="http://www.w3.org/1999/xlink" x="0px" y="0px"
	 viewBox="0 0 128 128" style="enable-background:new 0 0 128 128;" xml:space="preserve">
<style type="text/css">
	.st0{fill:#246CE8;}
</style>
<g>
	<path d="M64,4.3c32.9,0,59.7,26.8,59.7,59.7S96.9,123.7,64,123.7S4.3,96.9,4.3,64S31.1,4.3,64,4.3 M64,0C28.7,0,0,28.7,0,64
		s28.7,64,64,64s64-28.7,64-64S99.3,0,64,0L64,0z"/>
	<path class="st0" d="M106.9,37.1h-5.2L97,32.7l0,0.1c-0.1-0.1-0.2-0.3-0.4-0.4c-0.2-0.1-5.9-2.9-18-2.9c-7.9,0-12.3,3-14.6,5.4
		c-2.3-2.4-6.7-5.4-14.6-5.4c-12.1,0-17.8,2.8-18,2.9c-0.2,0.1-0.3,0.2-0.4,0.4l0-0.1l-4.6,4.4h-5.2c-1,0-1.9,0.8-1.9,1.9v56.1
		c0,0.5,0.2,1,0.6,1.4c0.4,0.4,0.9,0.5,1.4,0.5c0,0,27.1-2,31-2.4c3.4-0.3,7.3,1.1,8.7,2.6c0.8,0.8,1.6,1.2,2.3,1.2
		c0.2,0,0.5-0.1,0.7-0.2c0.2,0.1,0.5,0.2,0.7,0.2c0.8,0,1.5-0.4,2.3-1.2c1.5-1.5,5.3-2.9,8.7-2.6c3.9,0.3,31,2.4,31,2.4
		c0.5,0,1-0.1,1.4-0.5c0.4-0.4,0.6-0.9,0.6-1.4V39C108.8,37.9,108,37.1,106.9,37.1z M97.6,38.5l1.4,1.3v41.6l-1.4-2.8V38.5z
		 M97.9,87.5c-4.7,0.1-11.7,0.2-13.7-0.1c-0.9-0.1-1.7-0.6-2.7-1.1c-1.7-1-3.8-2.2-7.7-2.5c-3.2-0.3-5.8,0.9-7.7,2.2v-0.2
		c3.3-6.8,6.9-6.9,13.7-6.8l1.1,0c6,0,11.5,1.3,13.5,1.8L97.9,87.5z M28.9,39.8l1.4-1.3v40.2l-1.4,2.8V39.8z M61.8,93.2
		c-2.8-1.7-6.6-2.6-9.9-2.3c-3.3,0.3-22.6,1.7-28.9,2.2V40.9h2.2v48.4c0,1,0.8,1.9,1.8,1.9c1.4,0,14.1,0.5,17.3,0
		c1.6-0.2,2.8-0.9,4-1.6c1.5-0.9,3.1-1.8,6.1-2c3.8-0.3,6.4,2.3,7.4,3.3V93.2z M61.8,86c-1.9-1.3-4.5-2.4-7.7-2.2
		c-3.9,0.3-6,1.5-7.7,2.5c-1,0.6-1.7,1-2.7,1.1c-2,0.3-9,0.2-13.7,0.1l3.5-6.8c1.9-0.5,7.5-1.8,13.5-1.8l1.1,0
		c6.8,0,10.4,0,13.7,6.8V86z M48.1,75.2l-1.1,0c-5.2,0-10.1,0.9-12.9,1.5V35.4c2-0.7,7-2.1,15.3-2.1c7.6,0,11.1,3.2,12.5,5
		c0,0.1-0.1,0.3-0.1,0.4l0.3,33L62,79.3C58.2,75.1,53.6,75.1,48.1,75.2z M65.9,71.6l0.3-33c0-0.1-0.1-0.3-0.1-0.4
		c1.4-1.8,4.8-5,12.5-5c8.3,0,13.2,1.4,15.3,2.1v41.3c-2.8-0.6-7.7-1.5-12.9-1.5l-1.1,0c-5.5,0-10.1,0-13.9,4.1L65.9,71.6z
		 M105,93.1c-6.4-0.5-25.7-1.9-28.9-2.2c-3.3-0.3-7.1,0.6-9.9,2.3v-2.3c0.9-1.1,3.6-3.6,7.4-3.3c3,0.2,4.6,1.1,6.1,2
		c1.2,0.7,2.4,1.4,4,1.6c3.2,0.5,15.9,0.1,17.3,0c1,0,1.8-0.9,1.8-1.9V40.9h2.2V93.1z"/>
</g>
</svg>
