<?xml version="1.0" encoding="utf-8"?>
<!-- Generator: Adobe Illustrator 19.1.0, SVG Export Plug-In . SVG Version: 6.00 Build 0)  -->
<svg version="1.1" id="Layer_1" xmlns="http://www.w3.org/2000/svg" xmlns:xlink="http://www.w3.org/1999/xlink" x="0px" y="0px"
	 viewBox="0 0 128 128" style="enable-background:new 0 0 128 128;" xml:space="preserve">
<style type="text/css">
	.st0{fill:#F30281;}
</style>
<g>
	<path d="M64,4.3c32.9,0,59.7,26.8,59.7,59.7S96.9,123.7,64,123.7S4.3,96.9,4.3,64S31.1,4.3,64,4.3 M64,0C28.7,0,0,28.7,0,64
		s28.7,64,64,64s64-28.7,64-64S99.3,0,64,0L64,0z"/>
	<path class="st0" d="M84.8,49.1c0,0-8.9-11.1-18.5-2.5v-4h-4.6v4C52,38,43.2,49.1,43.2,49.1L32,75.7l5.6,5c12.6-8,18.1-4,18.1-4
		l8.4,8.6l8.4-8.6c0,0,5.4-4,18.1,4l5.6-5L84.8,49.1z M38,72.4l9.1-20.9c5-7.5,11.4-3,14.6,0.1v20.7C49.7,61.6,38,72.4,38,72.4z
		 M66.3,72.2V51.6c3.2-3.1,9.6-7.6,14.6-0.1L90,72.4C90,72.4,78.3,61.6,66.3,72.2z"/>
</g>
</svg>
