<?xml version="1.0" encoding="utf-8"?>
<!-- Generator: Adobe Illustrator 19.1.0, SVG Export Plug-In . SVG Version: 6.00 Build 0)  -->
<svg version="1.1" id="Layer_1" xmlns="http://www.w3.org/2000/svg" xmlns:xlink="http://www.w3.org/1999/xlink" x="0px" y="0px"
	 viewBox="0 0 128 128" style="enable-background:new 0 0 128 128;" xml:space="preserve">
<path d="M63.4,4.2c32.9,0,59.7,26.8,59.7,59.7s-26.8,59.7-59.7,59.7S3.6,96.9,3.6,64S30.4,4.2,63.4,4.2 M63.4,0
	C28,0-0.6,28.6-0.6,64s28.7,64,64,64s64-28.7,64-64S98.7,0,63.4,0L63.4,0z"/>
<g>
	<rect x="42" y="53.3" width="42.7" height="42.7"/>
	<path d="M84.7,44.8H42c0,0,1-12.8,21.3-12.8S84.7,44.8,84.7,44.8z"/>
</g>
</svg>
